<svg fill="none" height="24" viewBox="0 0 24 24" width="24" xmlns="http://www.w3.org/2000/svg"><path clip-rule="evenodd" d="m3 4.00098c0-.55229.44772-1 1-1h16c.5523 0 1 .44771 1 1v14.00002c0 1.6568-1.3431 3-3 3h-12c-1.65685 0-3-1.3432-3-3zm7 1.99902c-.55228 0-1 .44772-1 1s.44772 1 1 1h3l-1.8 2.4c-.2273.303-.2638.7084-.0944 1.0472s.5156.5528.8944.5528c1.1046 0 2 .8954 2 2s-.8954 2-2 2c-.5129 0-.9786-.1917-1.3331-.509-.4115-.3684-1.04371-.3333-1.41203.0782-.36833.4115-.33331 1.0437.07822 1.412.70701.6328 1.64311 1.0188 2.66691 1.0188 2.2091 0 4-1.7909 4-4 0-1.5965-.9353-2.9746-2.2879-3.6161l2.0879-2.7839c.2273-.30302.2638-.70843.0944-1.04721-.1694-.33879-.5156-.55279-.8944-.55279z" fill="#292929" fill-rule="evenodd"/></svg>