<svg fill="none" height="24" viewBox="0 0 24 24" width="24" xmlns="http://www.w3.org/2000/svg"><path clip-rule="evenodd" d="m3 4.00098c0-.55229.44772-1 1-1h16c.5523 0 1 .44771 1 1v14.00002c0 1.6568-1.3431 3-3 3h-12c-1.65685 0-3-1.3432-3-3zm10.8364 3.54711c.3027-.46195.1736-1.08181-.2884-1.38451-.4619-.3027-1.0818-.17361-1.3845.28833l-3.48829 5.32339c-.42645.6361-.67521 1.4014-.67521 2.2247 0 2.2091 1.79086 4 4 4 2.2091 0 4-1.7909 4-4 0-2.1334-1.6702-3.8768-3.7744-3.9937zm-3.8364 6.45191c0-1.1046.8954-2 2-2s2 .8954 2 2-.8954 2-2 2-2-.8954-2-2z" fill="#292929" fill-rule="evenodd"/></svg>