<svg fill="none" height="24" viewBox="0 0 24 24" width="24" xmlns="http://www.w3.org/2000/svg"><path clip-rule="evenodd" d="m3 4.00098c0-.55229.44772-1 1-1h16c.5523 0 1 .44771 1 1v14.00002c0 1.6568-1.3431 3-3 3h-12c-1.65685 0-3-1.3432-3-3zm6 1.99902c-.55228 0-1 .44772-1 1s.44772 1 1 1h4.523l-3.4515 8.6286c-.20509.5128.0443 1.0948.5571 1.2999s1.0948-.0443 1.2999-.5571l4-10.00001c.1232-.30809.0856-.65725-.1004-.93202-.1861-.27477-.4963-.43937-.8281-.43937z" fill="#292929" fill-rule="evenodd"/></svg>