<svg fill="none" height="24" viewBox="0 0 24 24" width="24" xmlns="http://www.w3.org/2000/svg"><path clip-rule="evenodd" d="m3 4.00098c0-.55229.44772-1 1-1h16c.5523 0 1 .44771 1 1v14.00002c0 1.6568-1.3431 3-3 3h-12c-1.65685 0-3-1.3432-3-3zm7.1636 12.45092c-.30267.462-.17357 1.0818.2884 1.3845.4619.3027 1.0818.1736 1.3845-.2883l3.4883-5.3234c.4264-.6361.6752-1.4014.6752-2.2247 0-2.20914-1.7909-4-4-4-2.20914 0-4 1.79086-4 4 0 2.1334 1.67022 3.8768 3.7744 3.9937zm3.8364-6.4519c0 1.1046-.8954 2-2 2s-2-.8954-2-2c0-1.10457.8954-2 2-2s2 .89543 2 2z" fill="#292929" fill-rule="evenodd"/></svg>