<svg fill="none" height="24" viewBox="0 0 24 24" width="24" xmlns="http://www.w3.org/2000/svg"><path clip-rule="evenodd" d="m3 4.00098c0-.55229.44772-1 1-1h16c.5523 0 1 .44771 1 1v14.00002c0 1.6568-1.3431 3-3 3h-12c-1.65685 0-3-1.3432-3-3zm9 3.99902c-.5523 0-1 .44772-1 1s.4477 1 1 1 1-.44772 1-1-.4477-1-1-1zm3 1c0 .67533-.2231 1.2985-.5997 1.7999.9714.7298 1.5997 1.8916 1.5997 3.2001 0 2.2091-1.7909 4-4 4-2.20914 0-4-1.7909-4-4 0-1.3085.62832-2.4703 1.59972-3.2001-.37658-.5014-.59972-1.12457-.59972-1.7999 0-1.65685 1.3431-3 3-3s3 1.34315 3 3zm-5 5c0-1.1046.8954-2 2-2s2 .8954 2 2-.8954 2-2 2-2-.8954-2-2z" fill="#292929" fill-rule="evenodd"/></svg>