<svg fill="none" height="24" viewBox="0 0 24 24" width="24" xmlns="http://www.w3.org/2000/svg"><path clip-rule="evenodd" d="m3 4.00098c0-.55229.44772-1 1-1h16c.5523 0 1 .44771 1 1v14.00002c0 1.6568-1.3431 3-3 3h-12c-1.65685 0-3-1.3432-3-3zm7.5 1.99902c-.4731 0-.88148.33155-.97867.79456l-1 4.76394c-.08879.423.10422.8551.47848 1.0713.37425.2162.84505.1675 1.16709-.1208.3545-.3173.8202-.509 1.3331-.509 1.1046 0 2 .8954 2 2s-.8954 2-2 2c-.5129 0-.9786-.1917-1.3331-.509-.41151-.3684-1.04371-.3333-1.41203.0782-.36833.4115-.33331 1.0437.07822 1.412.70701.6328 1.64311 1.0188 2.66691 1.0188 2.2091 0 4-1.7909 4-4s-1.7909-4-4-4c-.2101 0-.4165.0162-.6179.0475l.4298-2.0475h3.1881c.5523 0 1-.44772 1-1s-.4477-1-1-1z" fill="#292929" fill-rule="evenodd"/></svg>