<svg fill="none" height="24" viewBox="0 0 24 24" width="24" xmlns="http://www.w3.org/2000/svg"><path clip-rule="evenodd" d="m3 4.00098c0-.55229.44772-1 1-1h16c.5523 0 1 .44771 1 1v14.00002c0 1.6568-1.3431 3-3 3h-12c-1.65685 0-3-1.3432-3-3zm7.9393 4.43837c.5858-.58579 1.5356-.58579 2.1214 0 .5857.58579.5857 1.53553 0 2.12135l-3.82847 3.8284c-.46884.4688-.73223 1.1047-.73223 1.7678v.8431c0 .2652.10536.5196.29289.7071.18754.1875.44189.2929.70711.2929h5c.5523 0 1-.4477 1-1s-.4477-1-1-1h-3.9748c.0243-.0734.0655-.141.1212-.1967l3.8285-3.8284c1.3668-1.3669 1.3668-3.58293 0-4.94976-1.3669-1.36684-3.5829-1.36684-4.94977 0-.68322.68322-1.02513 1.58068-1.02513 2.47486 0 .5523.44771 1 1 1 .5523 0 1-.4477 1-1 0-.38543.1463-.76756.4393-1.06065z" fill="#292929" fill-rule="evenodd"/></svg>