<svg fill="none" height="24" viewBox="0 0 24 24" width="24" xmlns="http://www.w3.org/2000/svg"><path clip-rule="evenodd" d="m3 4.00098c0-.55229.44772-1 1-1h16c.5523 0 1 .44771 1 1v14.00002c0 1.6568-1.3431 3-3 3h-12c-1.65685 0-3-1.3432-3-3zm8.4615 3.27374c.1517-.53103-.1557-1.08452-.6868-1.23624-.531-.15173-1.0845.15576-1.23622.6868l-1.27159 4.45052c-.54756 1.9165.89143 3.8242 2.88461 3.8242h2.3485v2c0 .5523.4477 1 1 1s1-.4477 1-1v-3-4c0-.55228-.4477-1-1-1s-1 .44772-1 1v3h-2.3485c-.6644 0-1.1441-.6359-.9616-1.2747z" fill="#292929" fill-rule="evenodd"/></svg>